<svg width="76" height="76" viewBox="0 0 76 76" fill="none" xmlns="http://www.w3.org/2000/svg">
<path d="M42.2222 76V67.5556H50.6667V76H42.2222ZM33.7778 67.5556V46.4444H42.2222V67.5556H33.7778ZM67.5556 54.8889V38H76V54.8889H67.5556ZM59.1111 38V29.5556H67.5556V38H59.1111ZM8.44444 46.4444V38H16.8889V46.4444H8.44444ZM0 38V29.5556H8.44444V38H0ZM38 8.44444V0H46.4444V8.44444H38ZM6.33333 19H19V6.33333H6.33333V19ZM0 25.3333V0H25.3333V25.3333H0ZM6.33333 69.6667H19V57H6.33333V69.6667ZM0 76V50.6667H25.3333V76H0ZM57 19H69.6667V6.33333H57V19ZM50.6667 25.3333V0H76V25.3333H50.6667ZM59.1111 76V63.3333H50.6667V54.8889H67.5556V67.5556H76V76H59.1111ZM42.2222 46.4444V38H59.1111V46.4444H42.2222ZM25.3333 46.4444V38H16.8889V29.5556H42.2222V38H33.7778V46.4444H25.3333ZM29.5556 25.3333V8.44444H38V16.8889H46.4444V25.3333H29.5556ZM9.5 15.8333V9.5H15.8333V15.8333H9.5ZM9.5 66.5V60.1667H15.8333V66.5H9.5ZM60.1667 15.8333V9.5H66.5V15.8333H60.1667Z" fill="white"/>
</svg>
