<svg width="35" height="35" viewBox="0 0 35 35" fill="none" xmlns="http://www.w3.org/2000/svg">
<path d="M12.6 9.1C12.6 9.51534 12.4768 9.92135 12.2461 10.2667C12.0153 10.612 11.6874 10.8812 11.3036 11.0401C10.9199 11.1991 10.4977 11.2407 10.0903 11.1596C9.68295 11.0786 9.30877 10.8786 9.01508 10.5849C8.72139 10.2912 8.52138 9.91705 8.44035 9.50969C8.35932 9.10233 8.40091 8.68009 8.55985 8.29636C8.7188 7.91264 8.98796 7.58466 9.3333 7.35391C9.67865 7.12316 10.0847 7 10.5 7C11.057 7 11.5911 7.22125 11.9849 7.61508C12.3788 8.0089 12.6 8.54305 12.6 9.1ZM35 2.8V32.2C35 32.9426 34.705 33.6548 34.1799 34.1799C33.6548 34.705 32.9426 35 32.2 35H2.8C2.05739 35 1.3452 34.705 0.820101 34.1799C0.294999 33.6548 0 32.9426 0 32.2V2.8C0 2.05739 0.294999 1.3452 0.820101 0.820101C1.3452 0.294999 2.05739 0 2.8 0H32.2C32.9426 0 33.6548 0.294999 34.1799 0.820101C34.705 1.3452 35 2.05739 35 2.8ZM32.2 32.2V2.8H2.8V32.2H32.2ZM10.5 13.3C10.1287 13.3 9.7726 13.4475 9.51005 13.7101C9.2475 13.9726 9.1 14.3287 9.1 14.7V25.9C9.1 26.2713 9.2475 26.6274 9.51005 26.8899C9.7726 27.1525 10.1287 27.3 10.5 27.3C10.8713 27.3 11.2274 27.1525 11.4899 26.8899C11.7525 26.6274 11.9 26.2713 11.9 25.9V14.7C11.9 14.3287 11.7525 13.9726 11.4899 13.7101C11.2274 13.4475 10.8713 13.3 10.5 13.3ZM21 13.3C19.7397 13.2999 18.5083 13.6779 17.465 14.385C17.3884 14.0491 17.1907 13.7532 16.9096 13.5539C16.6285 13.3547 16.2839 13.2661 15.9415 13.3051C15.5992 13.3441 15.2833 13.5079 15.0542 13.7653C14.8251 14.0227 14.699 14.3555 14.7 14.7V25.9C14.7 26.2713 14.8475 26.6274 15.1101 26.8899C15.3726 27.1525 15.7287 27.3 16.1 27.3C16.4713 27.3 16.8274 27.1525 17.0899 26.8899C17.3525 26.6274 17.5 26.2713 17.5 25.9V19.6C17.5 18.6717 17.8687 17.7815 18.5251 17.1251C19.1815 16.4687 20.0717 16.1 21 16.1C21.9283 16.1 22.8185 16.4687 23.4749 17.1251C24.1313 17.7815 24.5 18.6717 24.5 19.6V25.9C24.5 26.2713 24.6475 26.6274 24.91 26.8899C25.1726 27.1525 25.5287 27.3 25.9 27.3C26.2713 27.3 26.6274 27.1525 26.8899 26.8899C27.1525 26.6274 27.3 26.2713 27.3 25.9V19.6C27.3 17.9291 26.6363 16.3267 25.4548 15.1452C24.2733 13.9637 22.6709 13.3 21 13.3Z" fill="white"/>
</svg>
