<svg width="35" height="28" viewBox="0 0 35 28" fill="none" xmlns="http://www.w3.org/2000/svg">
<path d="M3.5 28C2.5375 28 1.71383 27.6576 1.029 26.9727C0.343 26.2868 0 25.4625 0 24.5V3.5C0 2.5375 0.343 1.71383 1.029 1.029C1.71383 0.343 2.5375 0 3.5 0H31.5C32.4625 0 33.2868 0.343 33.9728 1.029C34.6576 1.71383 35 2.5375 35 3.5V24.5C35 25.4625 34.6576 26.2868 33.9728 26.9727C33.2868 27.6576 32.4625 28 31.5 28H3.5ZM31.5 7L18.4187 15.1813C18.2729 15.2688 18.1195 15.3341 17.9585 15.3772C17.7987 15.4216 17.6458 15.4437 17.5 15.4437C17.3542 15.4437 17.2013 15.4216 17.0415 15.3772C16.8805 15.3341 16.7271 15.2688 16.5813 15.1813L3.5 7V24.5H31.5V7ZM17.5 12.25L31.5 3.5H3.5L17.5 12.25ZM3.5 7.4375V4.85625V4.9V4.87725V7.4375Z" fill="white"/>
</svg>
